# xmcd
#
# Track frame offsets:
#	150
#	9324
#	20005
#	30129
#	42088
#	51393
#	66534
#	76597
#	90072
#	101160
#	112417
#	121727
#	134266
#	143653
#	154983
#	164591
#	175067
#	185082
#	195243
#	205515
#	215225
#	226496
#	234878
#	246671
#
# Disc length: 3432 seconds
#
# Revision: 0
# Processed by: cddbd v1.5.2PL0 Copyright (c) Steve Scherf et al.
# Submitted via: EasyCDDAExtractor 8.2.3.1
#
DISCID=450d6618
DTITLE=Lynn Anderson - The Best Of [66-68]-68 and With Love From Lynn -69
DYEAR=1968
DGENRE=Country
TTITLE0=Ride  Ride  Ride
TTITLE1=Too Much For You
TTITLE2=If I Kiss You (Will You Go Away)
TTITLE3=Strangers
TTITLE4=No Another Time
TTITLE5=Sing Me A Sad Song
TTITLE6=Promises  Promises
TTITLE7=I Live To Love You
TTITLE8=I've Been Everywhere
TTITLE9=Big Girls Don't Cry
TTITLE10=Beggars Can't Be Choosers
TTITLE11=There Oughta Be A Law
TTITLE12=All You Add Is Love
TTITLE13=Stand By Your Man
TTITLE14=Too Many Dollars  Not Enought Sense
TTITLE15=A Million Shades Of Blue
TTITLE16=Only Baby That'll Walk The Line
TTITLE17=Be Quiet Mind
TTITLE18=Flower Of Love
TTITLE19=Wave Bye Bye To The Man
TTITLE20=Our House Is Not A Home (For It's Never Been loved In)
TTITLE21=The Wife You Save May Be Your Own
TTITLE22=Auctioneer
TTITLE23=Flattery Will Get You Everywhere
EXTD=
EXTT0=
EXTT1=
EXTT2=
EXTT3=
EXTT4=
EXTT5=
EXTT6=
EXTT7=
EXTT8=
EXTT9=
EXTT10=
EXTT11=
EXTT12=
EXTT13=
EXTT14=
EXTT15=
EXTT16=
EXTT17=
EXTT18=
EXTT19=
EXTT20=
EXTT21=
EXTT22=
EXTT23=
PLAYORDER=
